<mxfile host="app.diagrams.net" modified="2023-06-16T08:06:39.821Z" agent="Mozilla/5.0 (X11; Linux x86_64) AppleWebKit/537.36 (KHTML, like Gecko) Chrome/114.0.0.0 Safari/537.36" etag="HTHcgKrI8B7uCiTwRKTD" version="21.4.0" type="device">
  <diagram name="Page-1" id="tG-fi7jxVLDGpoVH_Wuy">
    <mxGraphModel dx="2233" dy="1875" grid="1" gridSize="10" guides="1" tooltips="1" connect="1" arrows="1" fold="1" page="1" pageScale="1" pageWidth="850" pageHeight="1100" math="0" shadow="0">
      <root>
        <mxCell id="0" />
        <mxCell id="1" parent="0" />
        <mxCell id="z2xYvnzUwYUdNyKTKD9s-1" value="&lt;font data-font-src=&quot;https://fonts.googleapis.com/css?family=JetBrains+Mono&quot; face=&quot;JetBrains Mono&quot;&gt;alembic_version&lt;/font&gt;" style="swimlane;whiteSpace=wrap;html=1;rounded=1;fillColor=#f8cecc;strokeColor=#b85450;" parent="1" vertex="1">
          <mxGeometry x="520" y="180" width="160" height="60" as="geometry" />
        </mxCell>
        <mxCell id="z2xYvnzUwYUdNyKTKD9s-5" value="&lt;font style=&quot;font-size: 10px;&quot; data-font-src=&quot;https://fonts.googleapis.com/css?family=JetBrains+Mono&quot; face=&quot;JetBrains Mono&quot;&gt;version_num&lt;/font&gt;" style="rounded=1;whiteSpace=wrap;html=1;" parent="z2xYvnzUwYUdNyKTKD9s-1" vertex="1">
          <mxGeometry x="10" y="30" width="140" height="20" as="geometry" />
        </mxCell>
        <mxCell id="z2xYvnzUwYUdNyKTKD9s-3" value="&lt;font face=&quot;JetBrains Mono&quot;&gt;assertions&lt;/font&gt;" style="swimlane;whiteSpace=wrap;html=1;rounded=1;fillColor=#f8cecc;strokeColor=#b85450;" parent="1" vertex="1">
          <mxGeometry x="80" y="180" width="160" height="240" as="geometry" />
        </mxCell>
        <mxCell id="z2xYvnzUwYUdNyKTKD9s-7" value="&lt;font face=&quot;JetBrains Mono&quot;&gt;&lt;span style=&quot;font-size: 10px;&quot;&gt;id&lt;/span&gt;&lt;/font&gt;" style="rounded=1;whiteSpace=wrap;html=1;fillColor=#f8cecc;strokeColor=#b85450;" parent="z2xYvnzUwYUdNyKTKD9s-3" vertex="1">
          <mxGeometry x="10" y="30" width="140" height="20" as="geometry" />
        </mxCell>
        <mxCell id="z2xYvnzUwYUdNyKTKD9s-8" value="&lt;font face=&quot;JetBrains Mono&quot;&gt;&lt;span style=&quot;font-size: 10px;&quot;&gt;badge_id&lt;/span&gt;&lt;/font&gt;" style="rounded=1;whiteSpace=wrap;html=1;dashed=1;" parent="z2xYvnzUwYUdNyKTKD9s-3" vertex="1">
          <mxGeometry x="10" y="60" width="140" height="20" as="geometry" />
        </mxCell>
        <mxCell id="z2xYvnzUwYUdNyKTKD9s-9" value="&lt;font face=&quot;JetBrains Mono&quot;&gt;&lt;span style=&quot;font-size: 10px;&quot;&gt;person_id&lt;/span&gt;&lt;/font&gt;" style="rounded=1;whiteSpace=wrap;html=1;dashed=1;" parent="z2xYvnzUwYUdNyKTKD9s-3" vertex="1">
          <mxGeometry x="10" y="90" width="140" height="20" as="geometry" />
        </mxCell>
        <mxCell id="z2xYvnzUwYUdNyKTKD9s-10" value="&lt;font face=&quot;JetBrains Mono&quot;&gt;&lt;span style=&quot;font-size: 10px;&quot;&gt;salt&lt;/span&gt;&lt;/font&gt;" style="rounded=1;whiteSpace=wrap;html=1;" parent="z2xYvnzUwYUdNyKTKD9s-3" vertex="1">
          <mxGeometry x="10" y="120" width="140" height="20" as="geometry" />
        </mxCell>
        <mxCell id="z2xYvnzUwYUdNyKTKD9s-11" value="&lt;font face=&quot;JetBrains Mono&quot;&gt;&lt;span style=&quot;font-size: 10px;&quot;&gt;issued_on&lt;/span&gt;&lt;/font&gt;" style="rounded=1;whiteSpace=wrap;html=1;" parent="z2xYvnzUwYUdNyKTKD9s-3" vertex="1">
          <mxGeometry x="10" y="150" width="140" height="20" as="geometry" />
        </mxCell>
        <mxCell id="z2xYvnzUwYUdNyKTKD9s-12" value="&lt;font face=&quot;JetBrains Mono&quot;&gt;&lt;span style=&quot;font-size: 10px;&quot;&gt;recipient&lt;/span&gt;&lt;/font&gt;" style="rounded=1;whiteSpace=wrap;html=1;" parent="z2xYvnzUwYUdNyKTKD9s-3" vertex="1">
          <mxGeometry x="10" y="180" width="140" height="20" as="geometry" />
        </mxCell>
        <mxCell id="z2xYvnzUwYUdNyKTKD9s-13" value="&lt;font face=&quot;JetBrains Mono&quot;&gt;&lt;span style=&quot;font-size: 10px;&quot;&gt;issued_for&lt;/span&gt;&lt;/font&gt;" style="rounded=1;whiteSpace=wrap;html=1;" parent="z2xYvnzUwYUdNyKTKD9s-3" vertex="1">
          <mxGeometry x="10" y="210" width="140" height="20" as="geometry" />
        </mxCell>
        <mxCell id="z2xYvnzUwYUdNyKTKD9s-14" value="&lt;font face=&quot;JetBrains Mono&quot;&gt;authorizations&lt;/font&gt;" style="swimlane;whiteSpace=wrap;html=1;rounded=1;fillColor=#f8cecc;strokeColor=#b85450;" parent="1" vertex="1">
          <mxGeometry x="520" width="160" height="120" as="geometry" />
        </mxCell>
        <mxCell id="z2xYvnzUwYUdNyKTKD9s-15" value="&lt;font face=&quot;JetBrains Mono&quot;&gt;&lt;span style=&quot;font-size: 10px;&quot;&gt;id&lt;/span&gt;&lt;/font&gt;" style="rounded=1;whiteSpace=wrap;html=1;strokeWidth=1;fillColor=#f8cecc;strokeColor=#b85450;" parent="z2xYvnzUwYUdNyKTKD9s-14" vertex="1">
          <mxGeometry x="10" y="30" width="140" height="20" as="geometry" />
        </mxCell>
        <mxCell id="z2xYvnzUwYUdNyKTKD9s-16" value="&lt;font face=&quot;JetBrains Mono&quot;&gt;&lt;span style=&quot;font-size: 10px;&quot;&gt;badge_id&lt;/span&gt;&lt;/font&gt;" style="rounded=1;whiteSpace=wrap;html=1;dashed=1;" parent="z2xYvnzUwYUdNyKTKD9s-14" vertex="1">
          <mxGeometry x="10" y="60" width="140" height="20" as="geometry" />
        </mxCell>
        <mxCell id="z2xYvnzUwYUdNyKTKD9s-17" value="&lt;font face=&quot;JetBrains Mono&quot;&gt;&lt;span style=&quot;font-size: 10px;&quot;&gt;person_id&lt;/span&gt;&lt;/font&gt;" style="rounded=1;whiteSpace=wrap;html=1;dashed=1;" parent="z2xYvnzUwYUdNyKTKD9s-14" vertex="1">
          <mxGeometry x="10" y="90" width="140" height="20" as="geometry" />
        </mxCell>
        <mxCell id="z2xYvnzUwYUdNyKTKD9s-22" value="&lt;font face=&quot;JetBrains Mono&quot;&gt;badges&lt;/font&gt;" style="swimlane;whiteSpace=wrap;html=1;rounded=1;fillColor=#f8cecc;strokeColor=#b85450;" parent="1" vertex="1">
          <mxGeometry x="300" y="-180" width="160" height="300" as="geometry" />
        </mxCell>
        <mxCell id="z2xYvnzUwYUdNyKTKD9s-23" value="&lt;font face=&quot;JetBrains Mono&quot;&gt;&lt;span style=&quot;font-size: 10px;&quot;&gt;id&lt;/span&gt;&lt;/font&gt;" style="rounded=1;whiteSpace=wrap;html=1;fillColor=#f8cecc;strokeColor=#b85450;glass=0;" parent="z2xYvnzUwYUdNyKTKD9s-22" vertex="1">
          <mxGeometry x="10" y="30" width="140" height="20" as="geometry" />
        </mxCell>
        <mxCell id="z2xYvnzUwYUdNyKTKD9s-24" value="&lt;font face=&quot;JetBrains Mono&quot;&gt;&lt;span style=&quot;font-size: 10px;&quot;&gt;name&lt;/span&gt;&lt;/font&gt;" style="rounded=1;whiteSpace=wrap;html=1;" parent="z2xYvnzUwYUdNyKTKD9s-22" vertex="1">
          <mxGeometry x="10" y="60" width="140" height="20" as="geometry" />
        </mxCell>
        <mxCell id="z2xYvnzUwYUdNyKTKD9s-25" value="&lt;font face=&quot;JetBrains Mono&quot;&gt;&lt;span style=&quot;font-size: 10px;&quot;&gt;image&lt;/span&gt;&lt;/font&gt;" style="rounded=1;whiteSpace=wrap;html=1;" parent="z2xYvnzUwYUdNyKTKD9s-22" vertex="1">
          <mxGeometry x="10" y="90" width="140" height="20" as="geometry" />
        </mxCell>
        <mxCell id="z2xYvnzUwYUdNyKTKD9s-26" value="&lt;font face=&quot;JetBrains Mono&quot;&gt;&lt;span style=&quot;font-size: 10px;&quot;&gt;description&lt;/span&gt;&lt;/font&gt;" style="rounded=1;whiteSpace=wrap;html=1;" parent="z2xYvnzUwYUdNyKTKD9s-22" vertex="1">
          <mxGeometry x="10" y="120" width="140" height="20" as="geometry" />
        </mxCell>
        <mxCell id="z2xYvnzUwYUdNyKTKD9s-27" value="&lt;font face=&quot;JetBrains Mono&quot;&gt;&lt;span style=&quot;font-size: 10px;&quot;&gt;criteria&lt;/span&gt;&lt;/font&gt;" style="rounded=1;whiteSpace=wrap;html=1;" parent="z2xYvnzUwYUdNyKTKD9s-22" vertex="1">
          <mxGeometry x="10" y="150" width="140" height="20" as="geometry" />
        </mxCell>
        <mxCell id="z2xYvnzUwYUdNyKTKD9s-28" value="&lt;font face=&quot;JetBrains Mono&quot;&gt;&lt;span style=&quot;font-size: 10px;&quot;&gt;issuer_id&lt;/span&gt;&lt;/font&gt;" style="rounded=1;whiteSpace=wrap;html=1;dashed=1;" parent="z2xYvnzUwYUdNyKTKD9s-22" vertex="1">
          <mxGeometry x="10" y="180" width="140" height="20" as="geometry" />
        </mxCell>
        <mxCell id="z2xYvnzUwYUdNyKTKD9s-29" value="&lt;font face=&quot;JetBrains Mono&quot;&gt;&lt;span style=&quot;font-size: 10px;&quot;&gt;created_on&lt;/span&gt;&lt;/font&gt;" style="rounded=1;whiteSpace=wrap;html=1;" parent="z2xYvnzUwYUdNyKTKD9s-22" vertex="1">
          <mxGeometry x="10" y="210" width="140" height="20" as="geometry" />
        </mxCell>
        <mxCell id="z2xYvnzUwYUdNyKTKD9s-30" value="&lt;font face=&quot;JetBrains Mono&quot;&gt;&lt;span style=&quot;font-size: 10px;&quot;&gt;tags&lt;/span&gt;&lt;/font&gt;" style="rounded=1;whiteSpace=wrap;html=1;" parent="z2xYvnzUwYUdNyKTKD9s-22" vertex="1">
          <mxGeometry x="10" y="240" width="140" height="20" as="geometry" />
        </mxCell>
        <mxCell id="z2xYvnzUwYUdNyKTKD9s-31" value="&lt;font face=&quot;JetBrains Mono&quot;&gt;&lt;span style=&quot;font-size: 10px;&quot;&gt;stl&lt;/span&gt;&lt;/font&gt;" style="rounded=1;whiteSpace=wrap;html=1;" parent="z2xYvnzUwYUdNyKTKD9s-22" vertex="1">
          <mxGeometry x="10" y="270" width="140" height="20" as="geometry" />
        </mxCell>
        <mxCell id="z2xYvnzUwYUdNyKTKD9s-40" value="&lt;font face=&quot;JetBrains Mono&quot;&gt;issuers&lt;/font&gt;" style="swimlane;whiteSpace=wrap;html=1;rounded=1;fillColor=#f8cecc;strokeColor=#b85450;" parent="1" vertex="1">
          <mxGeometry x="520" y="-270" width="160" height="210" as="geometry" />
        </mxCell>
        <mxCell id="z2xYvnzUwYUdNyKTKD9s-41" value="&lt;font face=&quot;JetBrains Mono&quot;&gt;&lt;span style=&quot;font-size: 10px;&quot;&gt;id&lt;/span&gt;&lt;/font&gt;" style="rounded=1;whiteSpace=wrap;html=1;strokeWidth=1;fillColor=#f8cecc;strokeColor=#b85450;" parent="z2xYvnzUwYUdNyKTKD9s-40" vertex="1">
          <mxGeometry x="10" y="30" width="140" height="20" as="geometry" />
        </mxCell>
        <mxCell id="z2xYvnzUwYUdNyKTKD9s-42" value="&lt;font face=&quot;JetBrains Mono&quot;&gt;&lt;span style=&quot;font-size: 10px;&quot;&gt;origin&lt;/span&gt;&lt;/font&gt;" style="rounded=1;whiteSpace=wrap;html=1;" parent="z2xYvnzUwYUdNyKTKD9s-40" vertex="1">
          <mxGeometry x="10" y="60" width="140" height="20" as="geometry" />
        </mxCell>
        <mxCell id="z2xYvnzUwYUdNyKTKD9s-43" value="&lt;font face=&quot;JetBrains Mono&quot;&gt;&lt;span style=&quot;font-size: 10px;&quot;&gt;name&lt;/span&gt;&lt;/font&gt;" style="rounded=1;whiteSpace=wrap;html=1;" parent="z2xYvnzUwYUdNyKTKD9s-40" vertex="1">
          <mxGeometry x="10" y="90" width="140" height="20" as="geometry" />
        </mxCell>
        <mxCell id="z2xYvnzUwYUdNyKTKD9s-44" value="&lt;font face=&quot;JetBrains Mono&quot;&gt;&lt;span style=&quot;font-size: 10px;&quot;&gt;org&lt;/span&gt;&lt;/font&gt;" style="rounded=1;whiteSpace=wrap;html=1;" parent="z2xYvnzUwYUdNyKTKD9s-40" vertex="1">
          <mxGeometry x="10" y="120" width="140" height="20" as="geometry" />
        </mxCell>
        <mxCell id="z2xYvnzUwYUdNyKTKD9s-45" value="&lt;font face=&quot;JetBrains Mono&quot;&gt;&lt;span style=&quot;font-size: 10px;&quot;&gt;contact&lt;/span&gt;&lt;/font&gt;" style="rounded=1;whiteSpace=wrap;html=1;" parent="z2xYvnzUwYUdNyKTKD9s-40" vertex="1">
          <mxGeometry x="10" y="150" width="140" height="20" as="geometry" />
        </mxCell>
        <mxCell id="z2xYvnzUwYUdNyKTKD9s-46" value="&lt;font face=&quot;JetBrains Mono&quot;&gt;&lt;span style=&quot;font-size: 10px;&quot;&gt;created_on&lt;/span&gt;&lt;/font&gt;" style="rounded=1;whiteSpace=wrap;html=1;" parent="z2xYvnzUwYUdNyKTKD9s-40" vertex="1">
          <mxGeometry x="10" y="180" width="140" height="20" as="geometry" />
        </mxCell>
        <mxCell id="z2xYvnzUwYUdNyKTKD9s-47" value="&lt;font face=&quot;JetBrains Mono&quot;&gt;milestone&lt;/font&gt;" style="swimlane;whiteSpace=wrap;html=1;rounded=1;fillColor=#f8cecc;strokeColor=#b85450;" parent="1" vertex="1">
          <mxGeometry x="80" y="-300" width="160" height="150" as="geometry" />
        </mxCell>
        <mxCell id="z2xYvnzUwYUdNyKTKD9s-48" value="&lt;font face=&quot;JetBrains Mono&quot;&gt;&lt;span style=&quot;font-size: 10px;&quot;&gt;id&lt;/span&gt;&lt;/font&gt;" style="rounded=1;whiteSpace=wrap;html=1;strokeWidth=1;fillColor=#f8cecc;strokeColor=#b85450;" parent="z2xYvnzUwYUdNyKTKD9s-47" vertex="1">
          <mxGeometry x="10" y="30" width="140" height="20" as="geometry" />
        </mxCell>
        <mxCell id="z2xYvnzUwYUdNyKTKD9s-49" value="&lt;font face=&quot;JetBrains Mono&quot;&gt;&lt;span style=&quot;font-size: 10px;&quot;&gt;position&lt;/span&gt;&lt;/font&gt;" style="rounded=1;whiteSpace=wrap;html=1;" parent="z2xYvnzUwYUdNyKTKD9s-47" vertex="1">
          <mxGeometry x="10" y="60" width="140" height="20" as="geometry" />
        </mxCell>
        <mxCell id="z2xYvnzUwYUdNyKTKD9s-50" value="&lt;font face=&quot;JetBrains Mono&quot;&gt;&lt;span style=&quot;font-size: 10px;&quot;&gt;badge_id&lt;/span&gt;&lt;/font&gt;" style="rounded=1;whiteSpace=wrap;html=1;strokeColor=default;dashed=1;" parent="z2xYvnzUwYUdNyKTKD9s-47" vertex="1">
          <mxGeometry x="10" y="90" width="140" height="20" as="geometry" />
        </mxCell>
        <mxCell id="z2xYvnzUwYUdNyKTKD9s-51" value="&lt;font face=&quot;JetBrains Mono&quot;&gt;&lt;span style=&quot;font-size: 10px;&quot;&gt;series_id&lt;/span&gt;&lt;/font&gt;" style="rounded=1;whiteSpace=wrap;html=1;dashed=1;" parent="z2xYvnzUwYUdNyKTKD9s-47" vertex="1">
          <mxGeometry x="10" y="120" width="140" height="20" as="geometry" />
        </mxCell>
        <mxCell id="z2xYvnzUwYUdNyKTKD9s-54" value="&lt;font face=&quot;JetBrains Mono&quot;&gt;persons&lt;/font&gt;" style="swimlane;whiteSpace=wrap;html=1;rounded=1;fillColor=#f8cecc;strokeColor=#b85450;" parent="1" vertex="1">
          <mxGeometry x="300" y="180" width="160" height="330" as="geometry" />
        </mxCell>
        <mxCell id="z2xYvnzUwYUdNyKTKD9s-55" value="&lt;font face=&quot;JetBrains Mono&quot;&gt;&lt;span style=&quot;font-size: 10px;&quot;&gt;id&lt;/span&gt;&lt;/font&gt;" style="rounded=1;whiteSpace=wrap;html=1;strokeWidth=1;fillColor=#f8cecc;strokeColor=#b85450;" parent="z2xYvnzUwYUdNyKTKD9s-54" vertex="1">
          <mxGeometry x="10" y="30" width="140" height="20" as="geometry" />
        </mxCell>
        <mxCell id="z2xYvnzUwYUdNyKTKD9s-56" value="&lt;font face=&quot;JetBrains Mono&quot;&gt;&lt;span style=&quot;font-size: 10px;&quot;&gt;email&lt;/span&gt;&lt;/font&gt;" style="rounded=1;whiteSpace=wrap;html=1;" parent="z2xYvnzUwYUdNyKTKD9s-54" vertex="1">
          <mxGeometry x="10" y="60" width="140" height="20" as="geometry" />
        </mxCell>
        <mxCell id="z2xYvnzUwYUdNyKTKD9s-57" value="&lt;font face=&quot;JetBrains Mono&quot;&gt;&lt;span style=&quot;font-size: 10px;&quot;&gt;nickname&lt;/span&gt;&lt;/font&gt;" style="rounded=1;whiteSpace=wrap;html=1;" parent="z2xYvnzUwYUdNyKTKD9s-54" vertex="1">
          <mxGeometry x="10" y="90" width="140" height="20" as="geometry" />
        </mxCell>
        <mxCell id="z2xYvnzUwYUdNyKTKD9s-60" value="&lt;font face=&quot;JetBrains Mono&quot;&gt;&lt;span style=&quot;font-size: 10px;&quot;&gt;nickname&lt;/span&gt;&lt;/font&gt;" style="rounded=1;whiteSpace=wrap;html=1;" parent="z2xYvnzUwYUdNyKTKD9s-54" vertex="1">
          <mxGeometry x="10" y="120" width="140" height="20" as="geometry" />
        </mxCell>
        <mxCell id="z2xYvnzUwYUdNyKTKD9s-61" value="&lt;font face=&quot;JetBrains Mono&quot;&gt;&lt;span style=&quot;font-size: 10px;&quot;&gt;website&lt;/span&gt;&lt;/font&gt;" style="rounded=1;whiteSpace=wrap;html=1;" parent="z2xYvnzUwYUdNyKTKD9s-54" vertex="1">
          <mxGeometry x="10" y="150" width="140" height="20" as="geometry" />
        </mxCell>
        <mxCell id="z2xYvnzUwYUdNyKTKD9s-62" value="&lt;font face=&quot;JetBrains Mono&quot;&gt;&lt;span style=&quot;font-size: 10px;&quot;&gt;bio&lt;/span&gt;&lt;/font&gt;" style="rounded=1;whiteSpace=wrap;html=1;" parent="z2xYvnzUwYUdNyKTKD9s-54" vertex="1">
          <mxGeometry x="10" y="180" width="140" height="20" as="geometry" />
        </mxCell>
        <mxCell id="z2xYvnzUwYUdNyKTKD9s-63" value="&lt;font face=&quot;JetBrains Mono&quot;&gt;&lt;span style=&quot;font-size: 10px;&quot;&gt;created_on&lt;/span&gt;&lt;/font&gt;" style="rounded=1;whiteSpace=wrap;html=1;" parent="z2xYvnzUwYUdNyKTKD9s-54" vertex="1">
          <mxGeometry x="10" y="210" width="140" height="20" as="geometry" />
        </mxCell>
        <mxCell id="z2xYvnzUwYUdNyKTKD9s-64" value="&lt;font face=&quot;JetBrains Mono&quot;&gt;&lt;span style=&quot;font-size: 10px;&quot;&gt;opt_out&lt;/span&gt;&lt;/font&gt;" style="rounded=1;whiteSpace=wrap;html=1;" parent="z2xYvnzUwYUdNyKTKD9s-54" vertex="1">
          <mxGeometry x="10" y="240" width="140" height="20" as="geometry" />
        </mxCell>
        <mxCell id="z2xYvnzUwYUdNyKTKD9s-65" value="&lt;font face=&quot;JetBrains Mono&quot;&gt;&lt;span style=&quot;font-size: 10px;&quot;&gt;rank&lt;/span&gt;&lt;/font&gt;" style="rounded=1;whiteSpace=wrap;html=1;" parent="z2xYvnzUwYUdNyKTKD9s-54" vertex="1">
          <mxGeometry x="10" y="270" width="140" height="20" as="geometry" />
        </mxCell>
        <mxCell id="z2xYvnzUwYUdNyKTKD9s-66" value="&lt;font face=&quot;JetBrains Mono&quot;&gt;&lt;span style=&quot;font-size: 10px;&quot;&gt;last_login&lt;/span&gt;&lt;/font&gt;" style="rounded=1;whiteSpace=wrap;html=1;" parent="z2xYvnzUwYUdNyKTKD9s-54" vertex="1">
          <mxGeometry x="10" y="300" width="140" height="20" as="geometry" />
        </mxCell>
        <mxCell id="z2xYvnzUwYUdNyKTKD9s-68" value="&lt;font face=&quot;JetBrains Mono&quot;&gt;series&lt;/font&gt;" style="swimlane;whiteSpace=wrap;html=1;rounded=1;fillColor=#f8cecc;strokeColor=#b85450;" parent="1" vertex="1">
          <mxGeometry x="-140" y="-120" width="160" height="240" as="geometry" />
        </mxCell>
        <mxCell id="z2xYvnzUwYUdNyKTKD9s-69" value="&lt;font face=&quot;JetBrains Mono&quot;&gt;&lt;span style=&quot;font-size: 10px;&quot;&gt;id&lt;/span&gt;&lt;/font&gt;" style="rounded=1;whiteSpace=wrap;html=1;strokeWidth=1;fillColor=#f8cecc;strokeColor=#b85450;" parent="z2xYvnzUwYUdNyKTKD9s-68" vertex="1">
          <mxGeometry x="10" y="30" width="140" height="20" as="geometry" />
        </mxCell>
        <mxCell id="z2xYvnzUwYUdNyKTKD9s-70" value="&lt;font face=&quot;JetBrains Mono&quot;&gt;&lt;span style=&quot;font-size: 10px;&quot;&gt;name&lt;/span&gt;&lt;/font&gt;" style="rounded=1;whiteSpace=wrap;html=1;" parent="z2xYvnzUwYUdNyKTKD9s-68" vertex="1">
          <mxGeometry x="10" y="60" width="140" height="20" as="geometry" />
        </mxCell>
        <mxCell id="z2xYvnzUwYUdNyKTKD9s-71" value="&lt;font face=&quot;JetBrains Mono&quot;&gt;&lt;span style=&quot;font-size: 10px;&quot;&gt;description&lt;/span&gt;&lt;/font&gt;" style="rounded=1;whiteSpace=wrap;html=1;strokeColor=default;" parent="z2xYvnzUwYUdNyKTKD9s-68" vertex="1">
          <mxGeometry x="10" y="90" width="140" height="20" as="geometry" />
        </mxCell>
        <mxCell id="z2xYvnzUwYUdNyKTKD9s-72" value="&lt;font face=&quot;JetBrains Mono&quot;&gt;&lt;span style=&quot;font-size: 10px;&quot;&gt;created_on&lt;/span&gt;&lt;/font&gt;" style="rounded=1;whiteSpace=wrap;html=1;" parent="z2xYvnzUwYUdNyKTKD9s-68" vertex="1">
          <mxGeometry x="10" y="120" width="140" height="20" as="geometry" />
        </mxCell>
        <mxCell id="z2xYvnzUwYUdNyKTKD9s-73" value="&lt;font face=&quot;JetBrains Mono&quot;&gt;&lt;span style=&quot;font-size: 10px;&quot;&gt;last_updated&lt;/span&gt;&lt;/font&gt;" style="rounded=1;whiteSpace=wrap;html=1;" parent="z2xYvnzUwYUdNyKTKD9s-68" vertex="1">
          <mxGeometry x="10" y="150" width="140" height="20" as="geometry" />
        </mxCell>
        <mxCell id="z2xYvnzUwYUdNyKTKD9s-74" value="&lt;font face=&quot;JetBrains Mono&quot;&gt;&lt;span style=&quot;font-size: 10px;&quot;&gt;tags&lt;/span&gt;&lt;/font&gt;" style="rounded=1;whiteSpace=wrap;html=1;" parent="z2xYvnzUwYUdNyKTKD9s-68" vertex="1">
          <mxGeometry x="10" y="180" width="140" height="20" as="geometry" />
        </mxCell>
        <mxCell id="z2xYvnzUwYUdNyKTKD9s-75" value="&lt;font face=&quot;JetBrains Mono&quot;&gt;&lt;span style=&quot;font-size: 10px;&quot;&gt;team_id&lt;/span&gt;&lt;/font&gt;" style="rounded=1;whiteSpace=wrap;html=1;dashed=1;" parent="z2xYvnzUwYUdNyKTKD9s-68" vertex="1">
          <mxGeometry x="10" y="210" width="140" height="20" as="geometry" />
        </mxCell>
        <mxCell id="z2xYvnzUwYUdNyKTKD9s-93" value="&lt;font face=&quot;JetBrains Mono&quot;&gt;invitations&lt;/font&gt;" style="swimlane;whiteSpace=wrap;html=1;rounded=1;fillColor=#f8cecc;strokeColor=#b85450;" parent="1" vertex="1">
          <mxGeometry x="80" y="-60" width="160" height="180" as="geometry" />
        </mxCell>
        <mxCell id="z2xYvnzUwYUdNyKTKD9s-94" value="&lt;font face=&quot;JetBrains Mono&quot;&gt;&lt;span style=&quot;font-size: 10px;&quot;&gt;id&lt;/span&gt;&lt;/font&gt;" style="rounded=1;whiteSpace=wrap;html=1;strokeWidth=1;fillColor=#f8cecc;strokeColor=#b85450;" parent="z2xYvnzUwYUdNyKTKD9s-93" vertex="1">
          <mxGeometry x="10" y="30" width="140" height="20" as="geometry" />
        </mxCell>
        <mxCell id="z2xYvnzUwYUdNyKTKD9s-95" value="&lt;font face=&quot;JetBrains Mono&quot;&gt;&lt;span style=&quot;font-size: 10px;&quot;&gt;created_on&lt;/span&gt;&lt;/font&gt;" style="rounded=1;whiteSpace=wrap;html=1;" parent="z2xYvnzUwYUdNyKTKD9s-93" vertex="1">
          <mxGeometry x="10" y="60" width="140" height="20" as="geometry" />
        </mxCell>
        <mxCell id="z2xYvnzUwYUdNyKTKD9s-96" value="&lt;font face=&quot;JetBrains Mono&quot;&gt;&lt;span style=&quot;font-size: 10px;&quot;&gt;expires_on&lt;/span&gt;&lt;/font&gt;" style="rounded=1;whiteSpace=wrap;html=1;" parent="z2xYvnzUwYUdNyKTKD9s-93" vertex="1">
          <mxGeometry x="10" y="90" width="140" height="20" as="geometry" />
        </mxCell>
        <mxCell id="z2xYvnzUwYUdNyKTKD9s-97" value="&lt;font face=&quot;JetBrains Mono&quot;&gt;&lt;span style=&quot;font-size: 10px;&quot;&gt;badges_id&lt;/span&gt;&lt;/font&gt;" style="rounded=1;whiteSpace=wrap;html=1;dashed=1;" parent="z2xYvnzUwYUdNyKTKD9s-93" vertex="1">
          <mxGeometry x="10" y="120" width="140" height="20" as="geometry" />
        </mxCell>
        <mxCell id="z2xYvnzUwYUdNyKTKD9s-98" value="&lt;font face=&quot;JetBrains Mono&quot;&gt;&lt;span style=&quot;font-size: 10px;&quot;&gt;created_by&lt;/span&gt;&lt;/font&gt;" style="rounded=1;whiteSpace=wrap;html=1;dashed=1;" parent="z2xYvnzUwYUdNyKTKD9s-93" vertex="1">
          <mxGeometry x="10" y="150" width="140" height="20" as="geometry" />
        </mxCell>
        <mxCell id="z2xYvnzUwYUdNyKTKD9s-100" style="edgeStyle=orthogonalEdgeStyle;rounded=1;orthogonalLoop=1;jettySize=auto;html=1;entryX=1;entryY=0.5;entryDx=0;entryDy=0;" parent="1" source="z2xYvnzUwYUdNyKTKD9s-16" target="z2xYvnzUwYUdNyKTKD9s-23" edge="1">
          <mxGeometry relative="1" as="geometry">
            <Array as="points">
              <mxPoint x="480" y="70" />
              <mxPoint x="480" y="-140" />
            </Array>
          </mxGeometry>
        </mxCell>
        <mxCell id="z2xYvnzUwYUdNyKTKD9s-101" style="edgeStyle=orthogonalEdgeStyle;orthogonalLoop=1;jettySize=auto;html=1;entryX=1;entryY=0.5;entryDx=0;entryDy=0;rounded=1;" parent="1" source="z2xYvnzUwYUdNyKTKD9s-17" target="z2xYvnzUwYUdNyKTKD9s-55" edge="1">
          <mxGeometry relative="1" as="geometry">
            <Array as="points">
              <mxPoint x="480" y="100" />
              <mxPoint x="480" y="220" />
            </Array>
          </mxGeometry>
        </mxCell>
        <mxCell id="z2xYvnzUwYUdNyKTKD9s-102" style="edgeStyle=orthogonalEdgeStyle;rounded=1;orthogonalLoop=1;jettySize=auto;html=1;entryX=0;entryY=0.5;entryDx=0;entryDy=0;" parent="1" source="z2xYvnzUwYUdNyKTKD9s-97" target="z2xYvnzUwYUdNyKTKD9s-23" edge="1">
          <mxGeometry relative="1" as="geometry">
            <Array as="points">
              <mxPoint x="260" y="70" />
              <mxPoint x="260" y="-140" />
            </Array>
          </mxGeometry>
        </mxCell>
        <mxCell id="z2xYvnzUwYUdNyKTKD9s-103" style="edgeStyle=orthogonalEdgeStyle;rounded=1;orthogonalLoop=1;jettySize=auto;html=1;entryX=0;entryY=0.5;entryDx=0;entryDy=0;" parent="1" source="z2xYvnzUwYUdNyKTKD9s-98" target="z2xYvnzUwYUdNyKTKD9s-55" edge="1">
          <mxGeometry relative="1" as="geometry">
            <Array as="points">
              <mxPoint x="260" y="100" />
              <mxPoint x="260" y="220" />
            </Array>
          </mxGeometry>
        </mxCell>
        <mxCell id="z2xYvnzUwYUdNyKTKD9s-105" style="edgeStyle=orthogonalEdgeStyle;rounded=1;orthogonalLoop=1;jettySize=auto;html=1;entryX=0;entryY=0.5;entryDx=0;entryDy=0;" parent="1" source="z2xYvnzUwYUdNyKTKD9s-9" target="z2xYvnzUwYUdNyKTKD9s-55" edge="1">
          <mxGeometry relative="1" as="geometry">
            <Array as="points">
              <mxPoint x="260" y="280" />
              <mxPoint x="260" y="220" />
            </Array>
          </mxGeometry>
        </mxCell>
        <mxCell id="z2xYvnzUwYUdNyKTKD9s-107" style="edgeStyle=orthogonalEdgeStyle;rounded=1;orthogonalLoop=1;jettySize=auto;html=1;entryX=0;entryY=0.5;entryDx=0;entryDy=0;" parent="1" source="z2xYvnzUwYUdNyKTKD9s-50" target="z2xYvnzUwYUdNyKTKD9s-23" edge="1">
          <mxGeometry relative="1" as="geometry">
            <Array as="points">
              <mxPoint x="260" y="-200" />
              <mxPoint x="260" y="-140" />
            </Array>
          </mxGeometry>
        </mxCell>
        <mxCell id="z2xYvnzUwYUdNyKTKD9s-108" style="edgeStyle=orthogonalEdgeStyle;rounded=1;orthogonalLoop=1;jettySize=auto;html=1;entryX=1;entryY=0.5;entryDx=0;entryDy=0;" parent="1" source="z2xYvnzUwYUdNyKTKD9s-51" target="z2xYvnzUwYUdNyKTKD9s-69" edge="1">
          <mxGeometry relative="1" as="geometry">
            <Array as="points">
              <mxPoint x="40" y="-170" />
              <mxPoint x="40" y="-80" />
            </Array>
          </mxGeometry>
        </mxCell>
        <mxCell id="z2xYvnzUwYUdNyKTKD9s-109" value="&lt;font face=&quot;JetBrains Mono&quot;&gt;team&lt;/font&gt;" style="swimlane;whiteSpace=wrap;html=1;rounded=1;fillColor=#f8cecc;strokeColor=#b85450;" parent="1" vertex="1">
          <mxGeometry x="-140" y="180" width="160" height="120" as="geometry" />
        </mxCell>
        <mxCell id="z2xYvnzUwYUdNyKTKD9s-110" value="&lt;font face=&quot;JetBrains Mono&quot;&gt;&lt;span style=&quot;font-size: 10px;&quot;&gt;id&lt;/span&gt;&lt;/font&gt;" style="rounded=1;whiteSpace=wrap;html=1;strokeWidth=1;fillColor=#f8cecc;strokeColor=#b85450;" parent="z2xYvnzUwYUdNyKTKD9s-109" vertex="1">
          <mxGeometry x="10" y="30" width="140" height="20" as="geometry" />
        </mxCell>
        <mxCell id="z2xYvnzUwYUdNyKTKD9s-111" value="&lt;font face=&quot;JetBrains Mono&quot;&gt;&lt;span style=&quot;font-size: 10px;&quot;&gt;name&lt;/span&gt;&lt;/font&gt;" style="rounded=1;whiteSpace=wrap;html=1;" parent="z2xYvnzUwYUdNyKTKD9s-109" vertex="1">
          <mxGeometry x="10" y="60" width="140" height="20" as="geometry" />
        </mxCell>
        <mxCell id="z2xYvnzUwYUdNyKTKD9s-112" value="&lt;font face=&quot;JetBrains Mono&quot;&gt;&lt;span style=&quot;font-size: 10px;&quot;&gt;created_on&lt;/span&gt;&lt;/font&gt;" style="rounded=1;whiteSpace=wrap;html=1;" parent="z2xYvnzUwYUdNyKTKD9s-109" vertex="1">
          <mxGeometry x="10" y="90" width="140" height="20" as="geometry" />
        </mxCell>
        <mxCell id="z2xYvnzUwYUdNyKTKD9s-113" style="edgeStyle=orthogonalEdgeStyle;rounded=1;orthogonalLoop=1;jettySize=auto;html=1;entryX=1;entryY=0.5;entryDx=0;entryDy=0;" parent="1" source="z2xYvnzUwYUdNyKTKD9s-75" target="z2xYvnzUwYUdNyKTKD9s-110" edge="1">
          <mxGeometry relative="1" as="geometry">
            <Array as="points">
              <mxPoint x="40" y="100" />
              <mxPoint x="40" y="220" />
            </Array>
          </mxGeometry>
        </mxCell>
        <mxCell id="7ov_VyGLLzxV_9_m_Xwq-2" style="edgeStyle=orthogonalEdgeStyle;rounded=1;orthogonalLoop=1;jettySize=auto;html=1;entryX=0;entryY=0.5;entryDx=0;entryDy=0;" edge="1" parent="1" source="z2xYvnzUwYUdNyKTKD9s-8" target="z2xYvnzUwYUdNyKTKD9s-23">
          <mxGeometry relative="1" as="geometry">
            <Array as="points">
              <mxPoint x="60" y="250" />
              <mxPoint x="60" y="-140" />
            </Array>
          </mxGeometry>
        </mxCell>
        <mxCell id="7ov_VyGLLzxV_9_m_Xwq-3" style="edgeStyle=orthogonalEdgeStyle;rounded=1;orthogonalLoop=1;jettySize=auto;html=1;entryX=0;entryY=0.5;entryDx=0;entryDy=0;" edge="1" parent="1" source="z2xYvnzUwYUdNyKTKD9s-28" target="z2xYvnzUwYUdNyKTKD9s-41">
          <mxGeometry relative="1" as="geometry">
            <Array as="points">
              <mxPoint x="500" y="10" />
              <mxPoint x="500" y="-230" />
            </Array>
          </mxGeometry>
        </mxCell>
        <mxCell id="7ov_VyGLLzxV_9_m_Xwq-4" value="&lt;h1&gt;&lt;font style=&quot;font-size: 20px;&quot; data-font-src=&quot;https://fonts.googleapis.com/css?family=JetBrains+Mono&quot; face=&quot;JetBrains Mono&quot;&gt;The Tahrir Database&lt;/font&gt;&lt;/h1&gt;&lt;p&gt;&lt;font style=&quot;font-size: 10px;&quot; data-font-src=&quot;https://fonts.googleapis.com/css?family=JetBrains+Mono&quot; face=&quot;JetBrains Mono&quot;&gt;Entity Relationship Diagram | Last updated on 1324IST, 16 Jun 2023&lt;br&gt;&lt;/font&gt;&lt;font style=&quot;font-size: 10px;&quot; data-font-src=&quot;https://fonts.googleapis.com/css?family=JetBrains+Mono&quot; face=&quot;JetBrains Mono&quot;&gt;&lt;span style=&quot;background-color: initial;&quot;&gt;Licensed under CC BY-SA 4.0 |&amp;nbsp;&lt;/span&gt;&lt;/font&gt;&lt;span style=&quot;background-color: initial; font-size: 10px; font-family: &amp;quot;JetBrains Mono&amp;quot;;&quot;&gt;Made by Akashdeep Dhar&lt;/span&gt;&lt;/p&gt;" style="text;html=1;strokeColor=none;fillColor=none;spacing=5;spacingTop=-20;whiteSpace=wrap;overflow=hidden;rounded=0;" vertex="1" parent="1">
          <mxGeometry x="-160" y="440" width="440" height="90" as="geometry" />
        </mxCell>
      </root>
    </mxGraphModel>
  </diagram>
</mxfile>
